<svg xmlns="http://www.w3.org/2000/svg" width="737.25" height="57" viewBox="0 0 737.25 57"><g transform="translate(-114.324 8.8)"><g transform="translate(114.324 1.054)"><path d="M74.634,47.554v5.737H23V47.554h2.869V44.686h8.606V38.948h2.869V27.474H34.474V24.606H31.606V18.869h2.869V16H43.08v2.869h2.869v2.869h2.869v2.869h2.869v2.869h2.869v2.869h2.869v2.869h2.869v5.737H63.16v5.737h8.606v2.869Z" transform="translate(-23 -16)"/><path d="M24,41.948v2.869h8.606V41.948Zm31.554-5.737v5.737H32.606V39.08h2.869V33.343h2.869V19H44.08v5.737h2.869v2.869h2.869v2.869h2.869v5.737Z" transform="translate(-21.131 -10.394)" fill="#4161fb"/><path d="M55.686,45.686V42.817H52.817V37.08H49.948V31.343H47.08V28.474H44.211V25.606H41.343V22.737H38.474v5.737h2.869v2.869h2.869v2.869H47.08v5.737h2.869v5.737H27v2.869H64.291V45.686ZM38.474,19.869v2.869H32.737V19.869H29.869v2.869H27V17h8.606v2.869Z" transform="translate(-15.526 -14.131)" fill="#4141ff"/><path d="M39.474,23v2.869H36.606V23Zm5.737,5.737v2.869H48.08V28.737ZM28,31.606v2.869h2.869V31.606Z" transform="translate(-13.657 -2.92)" fill="#ffdba2"/><path d="M27,17h2.869v2.869H27Zm5.737,2.869v2.869h2.869V19.869Z" transform="translate(-15.526 -14.131)" fill="#ffdba3"/><path d="M37.343,18.869H34.474V16H43.08v2.869H37.343Zm-2.869,0H31.606v5.737h2.869V18.869Zm11.474,2.869V18.869H43.08v2.869Zm2.869,2.869V21.737H45.948v2.869Zm2.869,2.869V24.606H48.817v2.869Zm2.869,2.869V27.474H51.686v2.869Zm2.869,2.869V30.343H54.554v2.869ZM40.211,36.08V21.737H37.343v2.869H34.474v2.869h2.869V38.948h2.869Zm17.211,2.869h2.869V33.211H57.423v5.737Zm-20.08,2.869V38.948H34.474v5.737h2.869Zm22.948,2.869H63.16V38.948H60.291v5.737ZM31.606,47.554h2.869V44.686H25.869v2.869h5.737Zm34.423,0h5.737V44.686H63.16v2.869Zm5.737,0v2.869h-45.9V47.554H23v5.737H74.634V47.554Z" transform="translate(-23 -16)" fill="#050403"/><path d="M21.011-74.994v-5.253h5.253v5.253ZM0-48.731V-85.5H21.011v5.253H5.253v5.253H21.011v5.253H5.253v21.011Zm31.517,0V-74.994h5.253v26.264Zm0-31.517V-85.5h5.253v5.253ZM42.022-48.731v-5.253h5.253v5.253Zm21.011,0v-5.253h5.253v5.253ZM47.275-53.983v-5.253h5.253v5.253Zm10.506,0v-5.253h5.253v5.253Zm-5.253-5.253v-5.253H57.78v5.253Zm-5.253-5.253v-5.253h5.253v5.253Zm10.506,0v-5.253h5.253v5.253ZM42.022-69.742v-5.253h5.253v5.253Zm21.011,0v-5.253h5.253v5.253ZM78.791-48.731v-5.253H99.8v5.253Zm-5.253-5.253V-69.742h5.253v5.253H94.55v-5.253H99.8v10.506H78.791v5.253Zm5.253-15.758v-5.253H94.55v5.253Zm31.517,21.011v-5.253h5.253v5.253Zm-5.253-5.253V-85.5h5.253v31.517Zm36.769-5.253v-5.253h5.253v5.253ZM131.319-48.731V-85.5h5.253v26.264h5.253v5.253h-5.253v5.253Zm21.011,0v-5.253h-5.253v-5.253h5.253V-85.5h5.253v36.769Zm10.506,0V-74.994h5.253v26.264Zm0-31.517V-85.5h5.253v5.253Zm10.506,31.517v-5.253h5.253v-5.253h5.253v5.253H199.6v5.253Zm10.506-10.506v-5.253H189.1v5.253Zm5.253-5.253v-5.253H173.341v-5.253H199.6v5.253h-5.253v5.253Zm15.758,10.506v-5.253h5.253v5.253Zm5.253,5.253v-5.253h15.758v-5.253H210.11v-5.253h15.758v-5.253h5.253v21.011Zm0-21.011v-5.253h15.758v5.253Zm47.275,5.253v-5.253h5.253v5.253ZM236.374-48.731V-74.994h5.253v5.253h5.253v5.253h-5.253v15.758ZM246.88-69.742v-5.253h10.506v5.253Zm21.011,15.758V-69.742h5.253v15.758Zm5.253-15.758v-5.253h10.506v5.253Zm0,21.011v-5.253H288.9V-64.489h-5.253v-5.253H288.9V-85.5h5.253v36.769Zm26.264,0v-5.253h21.011v5.253Zm21.011-5.253v-5.253h5.253v5.253ZM304.66-59.236v-5.253h15.758v5.253Zm-5.253-5.253v-5.253h5.253v5.253Zm5.253-5.253v-5.253h21.011v5.253Z" transform="translate(70.457 85.682)" fill="#fff"/></g><line y2="57" transform="translate(552.427 -8.8)" fill="none" stroke="#fff" stroke-width="2"/><path d="M10.5-36.75V-42h5.25v5.25ZM0-26.25V-63H5.25v26.25H10.5v5.25H5.25v5.25Zm21,0V-31.5H15.75v-5.25H21V-63h5.25v36.75Zm10.5,0V-52.5h5.25v26.25Zm0-31.5V-63h5.25v5.25ZM42-26.25V-31.5h5.25v-5.25H52.5v5.25H68.25v5.25Zm10.5-10.5V-42h5.25v5.25ZM57.75-42v-5.25H42V-52.5H68.25v5.25H63V-42ZM73.5-31.5v-5.25h5.25v5.25Zm5.25,5.25V-31.5H94.5v-5.25H78.75V-42H94.5v-5.25h5.25v21Zm0-21V-52.5H94.5v5.25ZM126-42v-5.25h5.25V-42ZM105-26.25V-52.5h5.25v5.25h5.25V-42h-5.25v15.75Zm10.5-21V-52.5H126v5.25Zm21,15.75V-47.25h5.25V-31.5Zm5.25-15.75V-52.5h10.5v5.25Zm0,21V-31.5H157.5V-42h-5.25v-5.25h5.25V-63h5.25v36.75Zm36.75,0v-31.5h5.25v5.25H199.5v-5.25h5.25v31.5H199.5v-21H183.75v21Zm5.25-31.5V-63H199.5v5.25ZM231-52.5v-5.25h5.25v5.25ZM210-26.25V-63h21v5.25H215.25v5.25H231v5.25H215.25v21Zm31.5,0V-31.5h5.25V-57.75H241.5V-63h15.75v5.25H252V-31.5h5.25v5.25Z" transform="translate(594.324 64.749)" fill="#fff"/></g></svg>