<?xml version="1.0" standalone="no"?>
<!DOCTYPE svg PUBLIC "-//W3C//DTD SVG 20010904//EN"
 "http://www.w3.org/TR/2001/REC-SVG-20010904/DTD/svg10.dtd">
<svg version="1.0" xmlns="http://www.w3.org/2000/svg"
 width="700.000000pt" height="700.000000pt" viewBox="0 0 700.000000 700.000000"
 preserveAspectRatio="xMidYMid meet">
<metadata>
Created by potrace 1.14, written by Peter Selinger 2001-2017
</metadata>
<g transform="translate(0.000000,700.000000) scale(0.100000,-0.100000)"
fill="#000000" stroke="none">
<path d="M930 6255 l0 -185 -185 0 -185 0 3 -2577 2 -2578 180 0 180 0 3 -183
c2 -135 6 -182 15 -183 59 -4 5119 0 5123 4 3 3 5 82 4 175 0 127 2 171 12
179 7 5 88 9 186 9 l172 -1 0 2577 0 2578 -185 0 -185 0 0 185 0 185 -2570 -1
-2570 0 0 -184z"/>
</g>
</svg>
